<svg xmlns="http://www.w3.org/2000/svg" viewBox="0 0 147.8 139.92"><defs><style>.cls-1{fill:#fff;}</style></defs><title>DMIDCROMS-WebIcon-ProjectTrackingPortal</title><g id="Layer_2" data-name="Layer 2"><g id="Project_Tracking_Portal" data-name="Project Tracking Portal"><g id="Layer_18" data-name="Layer 18"><path class="cls-1" d="M72.6,34.34C38.87,34.34,12.21,66.65,11.09,68a3,3,0,0,0,0,3.81c1.12,1.37,27.78,33.68,61.51,33.68S133,73.2,134.11,71.83a3,3,0,0,0,0-3.81C133,66.65,106.32,34.34,72.6,34.34ZM47.35,69.93A25.25,25.25,0,1,1,72.6,95.18,25.28,25.28,0,0,1,47.35,69.93Zm-29.92,0C22.32,64.54,37.52,49.18,56.7,43a31.25,31.25,0,0,0,0,53.85C37.52,90.67,22.32,75.32,17.43,69.93ZM88.49,96.85a31.25,31.25,0,0,0,0-53.85c19.19,6.18,34.38,21.54,39.28,26.93C122.87,75.32,107.67,90.67,88.49,96.85Z"/><circle class="cls-1" cx="72.6" cy="69.93" r="13.63"/><path class="cls-1" d="M5.5,22.28H127.42L116.13,33.57h14.25l16.78-16.79L130.38,0H116.13l11.29,11.28H5.5a5.5,5.5,0,0,0,0,11Z"/><path class="cls-1" d="M142.3,117.63H20.38l11.29-11.28H17.42L.64,123.13l16.78,16.79H31.67L20.38,128.63H142.3a5.5,5.5,0,0,0,0-11Z"/></g></g></g></svg>