<svg xmlns="http://www.w3.org/2000/svg" viewBox="0 0 150.46 144"><defs><style>.cls-1{fill:#fff;}</style></defs><title>DMIDCROMS-WebIcon-CRS-Stage-Initiation</title><g id="Layer_2" data-name="Layer 2"><g id="CRS_Initiation" data-name="CRS Initiation"><g id="Stage_-_Initiation" data-name="Stage - Initiation"><path class="cls-1" d="M102.44,43.8l1.81,2.75Q93.2,55.4,79.68,73.8T59,108.2L55.22,111a65,65,0,0,0-6.45,5.22q-.68-2.58-2.94-8.47l-1.45-3.57a55.85,55.85,0,0,0-5.75-11.37,13.09,13.09,0,0,0-6-4.89q5.56-6.27,10.22-6.26,4,0,8.82,11.48l1.6,3.85A158.73,158.73,0,0,1,75.71,66.5Q89.39,51.71,102.44,43.8Z"/><path class="cls-1" d="M150.46,55.48,93.94,144,1.59,116.5,0,111.89,57.14,17l20.7,1.69L77,20.35,58.65,18.46,5.13,111l85,22.89L132,26.28l-22.91-2.45-3.8,4.9,2.48-6.59,4.15.28c.71-1.32.92-2.32.62-3s-1.33-1.29-3.09-1.42l.79-2.16a9,9,0,0,1,2.39.47,4,4,0,0,1,3,2.82,6.24,6.24,0,0,1-.62,3.77l20.08,2,.8,3.2-8.94,24.86ZM116.67,31.84l-4.16,10L60.15,34.76l4.69-9,9.81.95q6.1-12.81,9.65-17.52Q91.37-.19,100.22,0a10.54,10.54,0,0,1,7.43,2.88,9.44,9.44,0,0,1,2.83,7,13.83,13.83,0,0,1-.89,4.71q-2.11,5.46-6.1,15.64Zm-4.33,5.65L63,31.74l-.53,1L111.72,39Zm-7.7-22.89a13.8,13.8,0,0,0,.88-4.71Q105.52,4,99.07,4q-8.4,0-12.92,9.13Z"/></g></g></g></svg>