<svg xmlns="http://www.w3.org/2000/svg" viewBox="0 0 152.57 106.56"><defs><style>.cls-1{fill:#fff;}</style></defs><title>DMIDCROMS-WebIcon-SMART</title><g id="Layer_2" data-name="Layer 2"><g id="SMART"><path class="cls-1" d="M13.42,53.26a2.66,2.66,0,1,0,2.65,2.66A2.66,2.66,0,0,0,13.42,53.26Z"/><path class="cls-1" d="M140.58,0H12A12,12,0,0,0,0,12V94.57a12,12,0,0,0,12,12H140.58a12,12,0,0,0,12-12V12A12,12,0,0,0,140.58,0ZM13.42,60.93a5,5,0,1,1,5-5A5,5,0,0,1,13.42,60.93ZM142,94.57A1.39,1.39,0,0,1,140.58,96H21.46V10.62H140.58A1.39,1.39,0,0,1,142,12Z"/><path class="cls-1" d="M82.15,27.54a1.18,1.18,0,0,0-1.66.21L62.71,50.66,51,36.11a1.2,1.2,0,0,0-.84-.44,1.15,1.15,0,0,0-.89.32l-16,14.92a1.17,1.17,0,1,0,1.61,1.71l15-14.06,11.88,14.7a1.17,1.17,0,0,0,.92.39h0a1.14,1.14,0,0,0,.92-.41l18.7-24A1.19,1.19,0,0,0,82.15,27.54Z"/><path class="cls-1" d="M132.34,45.68H87.58V21.89a1.38,1.38,0,0,0-1.38-1.38H29a1.37,1.37,0,0,0-1.37,1.38V59.36A1.37,1.37,0,0,0,29,60.73H73.8V87.92a1.38,1.38,0,0,0,1.38,1.38h57.16a1.37,1.37,0,0,0,1.37-1.38V47.05A1.37,1.37,0,0,0,132.34,45.68ZM30.42,58V23.26H84.83V45.68H75.18a1.37,1.37,0,0,0-1.38,1.37V58ZM81,54.84V58H76.55V48.43h8.28v6.41ZM131,86.55H76.55V60.73h49.1V54.84H87.58V48.43H131Z"/><path class="cls-1" d="M81.43,65.4a1.18,1.18,0,1,0,0,2.36h43.43a1.18,1.18,0,1,0,0-2.36Z"/><path class="cls-1" d="M124.86,71.88H81.43a1.18,1.18,0,0,0,0,2.36h43.43a1.18,1.18,0,0,0,0-2.36Z"/><path class="cls-1" d="M124.86,78.38H81.43a1.18,1.18,0,0,0,0,2.36h43.43a1.18,1.18,0,0,0,0-2.36Z"/></g></g></svg>