<svg xmlns="http://www.w3.org/2000/svg" viewBox="0 0 140.22 120.9"><defs><style>.cls-1{fill:#fff;}</style></defs><title>DMIDCROMS-WebIcon-Training</title><g id="Layer_2" data-name="Layer 2"><g id="Training"><path class="cls-1" d="M140.22,0H0V107.58H95A59.7,59.7,0,0,1,91.43,118a.47.47,0,0,1,.15.06,57.22,57.22,0,0,0,8.56-7.29,55.61,55.61,0,0,1,4.58,10.17,70.54,70.54,0,0,0,4-13.32h5.13a51.24,51.24,0,0,1,1,8.39H115a52.63,52.63,0,0,0,4-8.39h2.76a60.61,60.61,0,0,1,6.47,5.83c-.14-2-.38-3.93-.69-5.83h12.74ZM108.94,106.18c.12-.7.2-1.4.29-2.1H113q.3,1,.54,2.1Zm.76-7.7c0-.87,0-1.74,0-2.6.44.85.86,1.72,1.24,2.6Zm9.76,7.7a1.8,1.8,0,0,0,.08-.21l.28.21Zm-5.75-27.82,7.56.83-6.07-4.86,7.69-1.18L115.77,70l7.12-3.13-7.69-1.18,6.07-4.86-7.73.85,4.6-6.27-7.25,2.82L113.71,51l-6.26,4.6.85-7.73-4.87,6.06-1.18-7.68-3.12,7.12L96,46.26l-1.18,7.68L90,47.88l.84,7.73L84.54,51l2.82,7.24-7.25-2.82,4.6,6.27L77,60.85l6.07,4.86-7.69,1.18L82.49,70l-7.13,3.13,7.69,1.18L77,79.19l7.73-.85-4.6,6.27,7.25-2.82L84.54,89l6.26-4.6L90,92.16l4.86-6.06L96,93.78l.13-.3a41.69,41.69,0,0,1,.09,5H9.1V9.1h122V98.48h-5.79A56.64,56.64,0,0,0,113.71,78.36Zm25.11,27.82H127.27c-.13-.71-.29-1.41-.45-2.1h9.89V3.5H3.5V104.08H95.65c-.11.69-.23,1.4-.37,2.1H1.4V1.4H138.82Z"/><path class="cls-1" d="M121.68,20.46H18.88a.7.7,0,0,0,0,1.4h102.8a.7.7,0,1,0,0-1.4Z"/><path class="cls-1" d="M121.68,31H18.88a.7.7,0,0,0,0,1.4h102.8a.7.7,0,1,0,0-1.4Z"/><path class="cls-1" d="M65.73,86.89H18.88a.7.7,0,1,0,0,1.4H65.73a.7.7,0,1,0,0-1.4Z"/></g></g></svg>