<svg xmlns="http://www.w3.org/2000/svg" viewBox="0 0 150.38 136.97"><defs>

<style>
.cls-1,.cls-2{fill:#fff;}
.cls-2{opacity:0.54;}
</style>
</defs>
<title>DMIDCROMS-WebIcon-SOCSCMS</title>
<g id="Layer_2" data-name="Layer 2">
<g id="CMS">
<circle class="cls-1" cx="28.69" cy="32" r="16" fill="white"/>
<circle class="cls-1" cx="121.69" cy="32" r="16" fill="white"/>
<path class="cls-2" opacity="0.54" d="M103,64.67v68.05A108.33,108.33,0,0,1,75.39,137c-8.27,0-14.52-.07-29.38-5.07V64.61s-1.68-26.3,28.5-26.3C74.52,38.31,103,37.84,103,64.67Z"/>
<circle class="cls-2" opacity="0.54" cx="74.69" cy="16" r="16"/>
<path class="cls-1" d="M57,80.67c0-26.84-28.5-26.53-28.5-26.53C-1.66,54.14,0,80.28,0,80.28H0c4.9,38,37,50.43,57,54.84Z"/>
<path class="cls-1" d="M121.7,54.14C91.52,54.14,93,80.57,93,80.57v54.55c55-9.93,57.27-54.84,57.27-54.84h.09C150.38,54.28,121.7,54.14,121.7,54.14Z"/>
</g>
</g>
</svg>