<svg xmlns="http://www.w3.org/2000/svg" viewBox="0 0 166.8 140.33"><defs><style>.cls-1{fill:#fff;}</style></defs><title>DMIDCROMS-WebIcon-PRT</title><g id="Layer_2" data-name="Layer 2"><g id="PRT"><rect class="cls-1" x="37.34" y="22.34" width="50.68" height="18.67"/><rect class="cls-1" y="22.34" width="28.01" height="6.67"/><rect class="cls-1" y="61.02" width="28.01" height="6.67"/><rect class="cls-1" y="99.69" width="28.01" height="6.67"/><polygon class="cls-1" points="73.52 129.03 9.84 129.03 9.84 0 111.53 0 111.53 81.45 104.53 81.45 104.53 7 16.84 7 16.84 122.03 73.52 122.03 73.52 129.03"/><path class="cls-1" d="M166.8,110.18a55.6,55.6,0,0,1-12,15q-17.09,15.1-42.4,15.11T69.94,125.22a56.4,56.4,0,0,1-12.06-15A57.55,57.55,0,0,1,69.94,95.07Q87.09,80,112.41,80t42.4,15.1A56.72,56.72,0,0,1,166.8,110.18Zm-34.34,0a18.74,18.74,0,0,0-5.9-13.9,19.59,19.59,0,0,0-14.22-5.78A20,20,0,0,0,104,92.28l-2.1-4.76q-23,3.95-33.7,22.66a43.14,43.14,0,0,0,7.49,9.71,48.48,48.48,0,0,0,26,12.89A24.84,24.84,0,0,1,91,123.7,23.84,23.84,0,0,1,87,110.18a24.86,24.86,0,0,1,1.59-8.76L93.62,103a19.19,19.19,0,0,0-1.4,7.17,18.73,18.73,0,0,0,5.9,13.93,20.46,20.46,0,0,0,28.44,0A18.69,18.69,0,0,0,132.46,110.18Zm-4.88,0a14.23,14.23,0,0,1-4.48,10.54,15.44,15.44,0,0,1-21.55,0,14.27,14.27,0,0,1-4.44-10.54,15,15,0,0,1,1-5.27l15.55,7-7.3-15.43a15.25,15.25,0,0,1,16.79,3.11A14.25,14.25,0,0,1,127.58,110.18Zm28.88,0a43.8,43.8,0,0,0-7.56-9.77,48.33,48.33,0,0,0-26.27-12.89,24.89,24.89,0,0,1,10.91,9,24,24,0,0,1,4.19,13.71,23.7,23.7,0,0,1-4.09,13.52,25.11,25.11,0,0,1-10.76,9.08Q145.86,128.84,156.46,110.18Z"/></g></g></svg>