<svg xmlns="http://www.w3.org/2000/svg" viewBox="0 0 142.9 133.68"><defs><style>.cls-1{fill:#fff;}</style></defs><title>DMIDCROMS-WebIcon-DMART-Protocols</title><g id="Layer_2" data-name="Layer 2"><g id="DMART_-_Protocols" data-name="DMART - Protocols"><path class="cls-1" d="M142.75,125.11,131.56,94.29A4.11,4.11,0,0,0,128,91.72H61.38c-6.76-3.1-17.33-6.6-29.26-5.57-4.88.42-6.8-.29-7.22-.66.73-1.77,9.4-5.73,25.62-5-.43.23-.66.48-.66.73v3.27c0,1.66,9.66,3,21.59,3s21.6-1.34,21.6-3V81.25c0-1.37-6.7-2.53-15.81-2.89v-3.2h49.47A4,4,0,0,0,130.63,71V4.12A4,4,0,0,0,126.71,0H16.19a4,4,0,0,0-3.91,4.12V71a4,4,0,0,0,3.91,4.12H65.67v3.2c-1.94.08-3.76.19-5.44.33-20.3-2.8-34.57.92-37.41,5.15a2.78,2.78,0,0,0-.25,2.94c1,1.87,4.29,2.58,9.76,2.11a53.74,53.74,0,0,1,21.52,2.83h-39a4.1,4.1,0,0,0-3.54,2.57L.16,125.11a2.36,2.36,0,0,0-.14.76H0v7.81H142.89v-7.52a2.8,2.8,0,0,0,0-.29h0A2.66,2.66,0,0,0,142.75,125.11ZM20.11,65.54a4,4,0,0,1-3.92-4.12V8.24a4,4,0,0,1,3.92-4.12H122.8a4,4,0,0,1,3.91,4.12V61.42a4,4,0,0,1-3.91,4.12Z"/><path class="cls-1" d="M24.45,48.51c0-16.2,5.62-30.67,14.45-40.27H24a4,4,0,0,0-3.91,4.12V57.3A4,4,0,0,0,24,61.42h1.66A68,68,0,0,1,24.45,48.51Z"/><path class="cls-1" d="M90.13,27.22A17.22,17.22,0,0,1,89,33.75a12.48,12.48,0,0,1-3.35,4.79,14.7,14.7,0,0,1-5.39,3,24.87,24.87,0,0,1-7.53,1H69.06v14a1,1,0,0,1-.22.61,1.63,1.63,0,0,1-.73.44,7.59,7.59,0,0,1-1.35.27,23.38,23.38,0,0,1-4.32,0,7.67,7.67,0,0,1-1.37-.27,1.49,1.49,0,0,1-.71-.44,1,1,0,0,1-.2-.61V17.11A3.14,3.14,0,0,1,61,14.72a3,3,0,0,1,2.18-.79H73.49c1,0,2,0,3,.11a31.23,31.23,0,0,1,3.36.51,14.86,14.86,0,0,1,4,1.44,11.61,11.61,0,0,1,3.43,2.66,11.09,11.09,0,0,1,2.17,3.75A14.56,14.56,0,0,1,90.13,27.22Zm-9.3.64A7.84,7.84,0,0,0,80,24.08a5.53,5.53,0,0,0-2-2.2,6.46,6.46,0,0,0-2.49-.9,19.43,19.43,0,0,0-2.68-.19H69.06V35.65h4a9.53,9.53,0,0,0,3.57-.58A6,6,0,0,0,79,33.46,6.93,6.93,0,0,0,80.36,31,10.07,10.07,0,0,0,80.83,27.86Z"/></g></g></svg>