<svg xmlns="http://www.w3.org/2000/svg" viewBox="0 0 144.95 111"><defs><style>.cls-1{fill:#fff;}</style></defs><title>DMIDCROMS-WebIcon-SafetyDB</title><g id="Layer_2" data-name="Layer 2"><g id="Safety_DB" data-name="Safety DB"><path class="cls-1" d="M111,18.32a49.75,49.75,0,0,0-77.13,0,8.12,8.12,0,0,0-1.76,6.48,5,5,0,0,0,2.31,3.51,6.07,6.07,0,0,0,3,.73,8.1,8.1,0,0,0,6.17-2.82,37.21,37.21,0,0,1,57.68,0A8.08,8.08,0,0,0,107.48,29a6,6,0,0,0,3-.74,4.92,4.92,0,0,0,2.3-3.5A8.08,8.08,0,0,0,111,18.32Z"/><path class="cls-1" d="M134,37.44c0-4-2.66-7.2-5.94-7.2H17c-3.29,0-5.95,3.23-5.95,7.2L0,103.81A7.19,7.19,0,0,0,7.19,111H137.76a7.19,7.19,0,0,0,7.19-7.19ZM95,77H78.72V93.28H66.23V77H50V64.52H66.23V48.25H78.72V64.52H95Z"/></g></g></svg>