<svg xmlns="http://www.w3.org/2000/svg" viewBox="0 0 159.51 156.88"><defs><style>.cls-1{fill:#fff;}</style></defs><title>DMIDCROMS-WebIcon-CRS-Stage-InProgress</title><g id="Layer_2" data-name="Layer 2"><g id="CRS_In_Progress" data-name="CRS In Progress"><g id="Stage_-_In_Progress" data-name="Stage - In Progress"><path class="cls-1" d="M93.41,28.57H121.1c3.6,0,6.06.69,7.31,2s1.92,3.89,1.92,7.51V64.24H144V33.88a18.7,18.7,0,0,0-5.39-13.67,18.33,18.33,0,0,0-13.53-5.44H93.41V0L73.11,23.16l20.3,20.3Z"/><path class="cls-1" d="M136.35,64.25,116,84.55h15V119.1c0,3.66-.7,6.15-2.08,7.41s-3.94,1.93-7.56,1.93H85.84v13.7h39.88a18.44,18.44,0,0,0,19-19V84.55h14.77Z"/><path class="cls-1" d="M64.22,128.44H37.67c-3.6,0-6.08-.69-7.37-2s-2-3.88-2-7.49V83H21.17L43.66,62.7H28.34V39.31c0-3.65.71-6.15,2.12-7.4s4-1.93,7.71-1.93H72.6V16.27H33.85a18.85,18.85,0,0,0-13.72,5.39,18.34,18.34,0,0,0-5.5,13.63V62.7H0L21,83H14.63v40.11A18.7,18.7,0,0,0,20,136.8a18.45,18.45,0,0,0,13.63,5.44H64.22v14.64l20.31-21.07-20.31-22.4Z"/></g></g></g></svg>