<svg xmlns="http://www.w3.org/2000/svg" viewBox="0 0 142.9 133.68"><defs><style>.cls-1{fill:#fff;}</style></defs><title>DMIDCROMS-WebIcon-DMART-Results</title><g id="Layer_2" data-name="Layer 2"><g id="DMART_-_Results" data-name="DMART - Results"><path class="cls-1" d="M142.75,125.11,131.56,94.29A4.11,4.11,0,0,0,128,91.72H61.38c-6.76-3.1-17.33-6.6-29.26-5.57-4.88.42-6.8-.29-7.22-.66.73-1.77,9.4-5.73,25.62-5-.43.23-.66.48-.66.73v3.27c0,1.66,9.66,3,21.59,3s21.6-1.34,21.6-3V81.25c0-1.37-6.7-2.53-15.81-2.89v-3.2h49.47A4,4,0,0,0,130.63,71V4.12A4,4,0,0,0,126.71,0H16.19a4,4,0,0,0-3.91,4.12V71a4,4,0,0,0,3.91,4.12H65.67v3.2c-1.94.08-3.76.19-5.44.33-20.3-2.8-34.57.92-37.41,5.15a2.78,2.78,0,0,0-.25,2.94c1,1.87,4.29,2.58,9.76,2.11a53.74,53.74,0,0,1,21.52,2.83h-39a4.1,4.1,0,0,0-3.54,2.57L.16,125.11a2.36,2.36,0,0,0-.14.76H0v7.81H142.89v-7.52a2.8,2.8,0,0,0,0-.29h0A2.66,2.66,0,0,0,142.75,125.11ZM20.11,65.54a4,4,0,0,1-3.92-4.12V8.24a4,4,0,0,1,3.92-4.12H122.8a4,4,0,0,1,3.91,4.12V61.42a4,4,0,0,1-3.91,4.12Z"/><path class="cls-1" d="M24.45,48.51c0-16.2,5.62-30.67,14.45-40.27H24a4,4,0,0,0-3.91,4.12V57.3A4,4,0,0,0,24,61.42h1.66A68,68,0,0,1,24.45,48.51Z"/><path class="cls-1" d="M89.41,56.55a1.34,1.34,0,0,1-.13.63,1.08,1.08,0,0,1-.65.42,6.21,6.21,0,0,1-1.49.24c-.65,0-1.54.07-2.67.07-1,0-1.7,0-2.27-.07a5.34,5.34,0,0,1-1.33-.25,1.45,1.45,0,0,1-.69-.48,2.47,2.47,0,0,1-.34-.69l-3.93-9.78c-.47-1.1-.93-2.08-1.39-2.94A9.48,9.48,0,0,0,73,41.55a5.5,5.5,0,0,0-1.91-1.3,6.49,6.49,0,0,0-2.5-.44H65.83V56.49a.94.94,0,0,1-.22.61,1.63,1.63,0,0,1-.73.44,7.4,7.4,0,0,1-1.35.27,23.27,23.27,0,0,1-4.31,0,7.32,7.32,0,0,1-1.37-.27,1.45,1.45,0,0,1-.71-.44,1,1,0,0,1-.21-.61V16.73a2.71,2.71,0,0,1,.76-2.14,2.78,2.78,0,0,1,1.88-.66H70.91c1.15,0,2.09,0,2.84.06s1.42.1,2,.17a18.45,18.45,0,0,1,4.75,1.29,11.42,11.42,0,0,1,3.59,2.38,10,10,0,0,1,2.25,3.49,12.71,12.71,0,0,1,.77,4.62,13.69,13.69,0,0,1-.55,4A10.58,10.58,0,0,1,85,33.18a11.14,11.14,0,0,1-2.68,2.47,14.38,14.38,0,0,1-3.62,1.69,9.85,9.85,0,0,1,1.85,1.15,10.08,10.08,0,0,1,1.62,1.64,15,15,0,0,1,1.44,2.2,28.27,28.27,0,0,1,1.32,2.79l3.69,8.63c.33.85.56,1.48.67,1.87A3.41,3.41,0,0,1,89.41,56.55ZM77.94,26.85a6.52,6.52,0,0,0-1-3.65,5.25,5.25,0,0,0-3.21-2.1,13.53,13.53,0,0,0-1.54-.27,21.21,21.21,0,0,0-2.39-.1h-4V33.14h4.54a11,11,0,0,0,3.31-.45,6.73,6.73,0,0,0,2.37-1.29,5.28,5.28,0,0,0,1.42-2A6.8,6.8,0,0,0,77.94,26.85Z"/></g></g></svg>