<svg xmlns="http://www.w3.org/2000/svg" viewBox="0 0 147.77 140.02"><defs><style>.cls-1{fill:#fff;}</style></defs><title>DMIDCROMS-WebIcon-ServiceRequests</title><g id="Layer_2" data-name="Layer 2"><g id="Service_Requests" data-name="Service Requests"><path class="cls-1" d="M1.66,79.39c-3.94,9.19-.85,24.5,9.06,28l6.69,2.34c9.91,3.47,21.83-6.59,24.4-16.25l5-20.18L10.17,60.47Z"/><path class="cls-1" d="M33.4,48.69,32,48.18c-7.6-2.66-16.67,1.93-21,10.46l16.82,5.89Z"/><path class="cls-1" d="M136.77,124.66H115.91v-3.23h24.27v-4.17c0-1.15-2-.55-2.51-3.12-8.07-23-32.76-22.29-32.76-22.29a3,3,0,0,0,.67-3.68c-.7-1.2-2.85-1.56-3.33-1.63V81.61s5.82.09,5.82-1.33c0-1.59-7.51-1.26-7.51-1.26s-7.5-.33-7.5,1.26c0,1.42,5.81,1.33,5.81,1.33v4.93c-.47.07-2.62.43-3.33,1.63a3,3,0,0,0,.68,3.68s-24.7-.68-32.76,22.29c-.54,2.57-2.53,2-2.52,3.12v4.17H85.22v3.23H64.35a36.08,36.08,0,0,1-3.91,6.26,15.53,15.53,0,0,1-7.27-7.34c-1.78-4-1.58-8.88.58-14.45,1.19-3.07,2.32-5.74,3.31-8.09,4.71-11.13,7.08-16.72,3.14-33.61C57.73,56.87,59.35,47,64.75,39.59a26.74,26.74,0,0,1,2.46-2.92A68.44,68.44,0,0,0,65.55,49c-.16,10.46,5.33,18.82,14.69,22.35a23.67,23.67,0,0,0,26.41-6.4c7.17-8.42,8.83-19.11,4.33-27.9-4.38-8.57-13.39-13.16-24.1-12.3A36.44,36.44,0,0,0,72.13,29C74.63,16.89,75.85,4.4,61.89.66,55.73-1,47,.32,42.18,6c-3.48,4.12-6.21,12.09.48,26.63,3.07,6.66-.2,14.13-4.15,17.92-.41-.19-.82-.37-1.24-.52l-1.45-.51L30.36,65.42l16.8,6c1.57-7.55-.9-15-5.89-19.07,4.52-4.73,7.89-13.16,4.29-21C40.81,21,40.49,13,44.62,8.07,48.52,3.45,56,2.39,61.07,3.74c11.51,3.09,10.56,12.53,7.27,27.71a30,30,0,0,0-6.16,6.26c-6,8.16-7.77,19-5.09,30.44C60.8,84,58.7,89,54.12,99.8c-1,2.37-2.14,5.06-3.35,8.18-2.48,6.41-2.65,12.11-.5,16.94a18.47,18.47,0,0,0,7.93,8.44,8.56,8.56,0,0,1-4.85,2.49V140h94.42v-4.17C141.81,135.35,136.77,124.66,136.77,124.66ZM71.21,33.28A31.91,31.91,0,0,1,87.13,27.9c9.39-.75,17.24,3.2,21,10.57,3.9,7.62,2.4,17-3.92,24.38a20.47,20.47,0,0,1-22.85,5.48C73.32,65.3,68.6,58.08,68.75,49,68.82,44.19,70,38.65,71.21,33.28Z"/></g></g></svg>