<svg xmlns="http://www.w3.org/2000/svg" viewBox="0 0 115.04 144.29"><defs><style>.cls-1{fill:#fff;}</style></defs><title>DMIDCROMS-WebIcon-CRS-Stage-Development</title><g id="Layer_2" data-name="Layer 2"><g id="CRS_Development" data-name="CRS Development"><path id="Stage_-_Development" data-name="Stage - Development" class="cls-1" d="M47.17,68.75l5.09,2.76q14.35,7.74,30.28-.21A51.2,51.2,0,0,0,104.8,49.21,38.81,38.81,0,0,0,108.4,20q6.16,15.62,6.55,21,.83,9.23-6,21.79A39,39,0,0,1,87.84,81.19q-13.64,5.13-24.61-.14L52.59,93.63c.2-1.58-.68-3.66-2.65-6.26a16.54,16.54,0,0,0-5.19-5l-1-.56,5.89-8.66-1.36-.73-6.51,9L38.27,81ZM61.92,2.89Q77.58-3.35,91,3.9q27.25,14.73,11.28,44.28A47.46,47.46,0,0,1,80.36,69.25Q64.88,76.57,50.87,69q-13.41-7.24-16-20.51-2.46-12.29,4.92-26A42.22,42.22,0,0,1,61.92,2.89ZM38.09,47.39q2.37,12,14.6,18.64,12.66,6.84,26.78.21a43,43,0,0,0,20-19.14Q113.92,20.34,89.29,7,77.07.42,62.85,6A37.8,37.8,0,0,0,42.64,23.74Q35.89,36.22,38.09,47.39Zm-33,78.5L36.25,83.48a5.6,5.6,0,0,1,6.1-.33,19.45,19.45,0,0,1,7.09,6.36c1.87,2.77,2.18,5,.91,6.64L17.14,141a8.13,8.13,0,0,1-4.89,2.95A9.66,9.66,0,0,1,5,143.16a9.28,9.28,0,0,1-4.41-5.23,7.58,7.58,0,0,1,.29-6.43ZM62.41,9.08q13.1-5.55,24.13.42a23.19,23.19,0,0,1,7.28,6Q81.1,9.21,68.74,13.21T49.57,29.79q-7,12.9-3,30Q34.27,43.69,44,25.68A36.53,36.53,0,0,1,62.41,9.08Zm7.81,13.76a20.19,20.19,0,0,1,13.47,1.68q-9,3.69-11.35,5a21.14,21.14,0,0,0-8.72,8.23,98.28,98.28,0,0,0-4.29,10q-3.63-10,.24-17.1A15.17,15.17,0,0,1,70.22,22.84Z"/></g></g></svg>