<svg xmlns="http://www.w3.org/2000/svg" viewBox="0 0 133.23 124.02"><defs><style>.cls-1,.cls-2{fill:#fff;}.cls-2{fill-opacity:0.48;}</style></defs><title>DMIDCROMS-WebIcon-SpotfireDataAnalytics</title><g id="Layer_2" data-name="Layer 2"><g id="Spotfire_Data_Analytics" data-name="Spotfire Data Analytics"><g id="Layer_18_copy" data-name="Layer 18 copy"><path class="cls-1" d="M126.33,123.77H2.5a2.5,2.5,0,0,1-2.5-2.5V2.5a2.5,2.5,0,0,1,5,0V118.77H126.33a2.5,2.5,0,1,1,0,5Z"/><polyline class="cls-2" points="127.03 120.03 127.03 42.71 103.87 73.94 70.64 48.6 48.72 82.08 31.16 32.92 4.82 120.03 127.03 120.03"/><path class="cls-1" d="M5.52,124a5.48,5.48,0,0,1-5.26-7.09L31.43,13.84,50.87,68.31,70,39.14l33.5,25.53,19.84-26.74a5.5,5.5,0,1,1,8.83,6.55l-26.47,35.7-33-25.13L48,92.84,32.29,49,10.78,120.12A5.49,5.49,0,0,1,5.52,124Z"/><path class="cls-1" d="M33.46,121.77a.5.5,0,0,1-.5-.5V2.5a.5.5,0,0,1,.5-.5.5.5,0,0,1,.5.5V121.27A.5.5,0,0,1,33.46,121.77Z"/><path class="cls-1" d="M64.41,117.67a.5.5,0,0,1-.5-.5V2.5a.5.5,0,0,1,.5-.5.5.5,0,0,1,.5.5V117.17A.5.5,0,0,1,64.41,117.67Z"/><path class="cls-1" d="M95.37,117.67a.5.5,0,0,1-.5-.5V2.5a.5.5,0,0,1,1,0V117.17A.5.5,0,0,1,95.37,117.67Z"/><path class="cls-1" d="M123.8,31.43H5a.5.5,0,0,1-.5-.5.5.5,0,0,1,.5-.5H123.8a.5.5,0,0,1,.5.5A.5.5,0,0,1,123.8,31.43Z"/><path class="cls-1" d="M123.8,62.39H4.27a.5.5,0,0,1-.5-.5.5.5,0,0,1,.5-.5H123.8a.5.5,0,0,1,.5.5A.5.5,0,0,1,123.8,62.39Z"/><path class="cls-1" d="M123.8,93.34H4.27a.5.5,0,0,1-.5-.5.5.5,0,0,1,.5-.5H123.8a.5.5,0,0,1,.5.5A.5.5,0,0,1,123.8,93.34Z"/></g></g></g></svg>