<svg xmlns="http://www.w3.org/2000/svg" viewBox="0 0 142.9 133.68"><defs><style>.cls-1{fill:#fff;}</style></defs><title>DMIDCROMS-WebIcon-DMART-GrantCapture</title><g id="Layer_2" data-name="Layer 2"><g id="DMART_-_Grant_Capture" data-name="DMART - Grant Capture"><path class="cls-1" d="M142.75,125.11,131.56,94.29A4.11,4.11,0,0,0,128,91.72H61.38c-6.76-3.1-17.33-6.6-29.26-5.57-4.88.42-6.8-.29-7.22-.66.73-1.77,9.4-5.73,25.62-5-.43.23-.66.48-.66.73v3.27c0,1.66,9.66,3,21.59,3s21.6-1.34,21.6-3V81.25c0-1.37-6.7-2.53-15.81-2.89v-3.2h49.47A4,4,0,0,0,130.63,71V4.12A4,4,0,0,0,126.71,0H16.19a4,4,0,0,0-3.91,4.12V71a4,4,0,0,0,3.91,4.12H65.67v3.2c-1.94.08-3.76.19-5.44.33-20.3-2.8-34.57.92-37.41,5.15a2.78,2.78,0,0,0-.25,2.94c1,1.87,4.29,2.58,9.76,2.11a53.74,53.74,0,0,1,21.52,2.83h-39a4.1,4.1,0,0,0-3.54,2.57L.16,125.11a2.36,2.36,0,0,0-.14.76H0v7.81H142.89v-7.52a2.8,2.8,0,0,0,0-.29h0A2.66,2.66,0,0,0,142.75,125.11ZM20.11,65.54a4,4,0,0,1-3.92-4.12V8.24a4,4,0,0,1,3.92-4.12H122.8a4,4,0,0,1,3.91,4.12V61.42a4,4,0,0,1-3.91,4.12Z"/><path class="cls-1" d="M24.45,48.51c0-16.2,5.62-30.67,14.45-40.27H24a4,4,0,0,0-3.91,4.12V57.3A4,4,0,0,0,24,61.42h1.66A68,68,0,0,1,24.45,48.51Z"/><path class="cls-1" d="M73.3,20.73a16.38,16.38,0,0,1-.08,1.69A5.6,5.6,0,0,1,73,23.55a1.22,1.22,0,0,1-.37.59.8.8,0,0,1-.53.17,3.3,3.3,0,0,1-1.42-.61,22.74,22.74,0,0,0-2.6-1.32,29,29,0,0,0-3.88-1.32,20.36,20.36,0,0,0-5.22-.6,14.35,14.35,0,0,0-5.75,1.1,12.45,12.45,0,0,0-4.4,3.11A13.71,13.71,0,0,0,46,29.51a18.74,18.74,0,0,0-1,6.24,19.89,19.89,0,0,0,1,6.61,13.28,13.28,0,0,0,2.79,4.79,11.47,11.47,0,0,0,4.31,2.91,15.33,15.33,0,0,0,5.57,1,12.7,12.7,0,0,0,2.94-.34,10.73,10.73,0,0,0,2.71-1V39.54H56.05c-.41,0-.72-.26-.95-.76a6.9,6.9,0,0,1-.34-2.59,11.78,11.78,0,0,1,.09-1.59,3.78,3.78,0,0,1,.25-1,1.39,1.39,0,0,1,.41-.58.85.85,0,0,1,.54-.19H70.83a2.5,2.5,0,0,1,1,.19,2,2,0,0,1,.74.56,2.45,2.45,0,0,1,.49.9,4,4,0,0,1,.17,1.2V53.07a4.28,4.28,0,0,1-.35,1.78,2.62,2.62,0,0,1-1.46,1.2c-.73.29-1.64.6-2.72.91s-2.21.59-3.37.81a34.29,34.29,0,0,1-3.52.51c-1.18.11-2.37.17-3.57.17a27.28,27.28,0,0,1-9.39-1.51A18.37,18.37,0,0,1,37.41,45.61a26.6,26.6,0,0,1-1.53-9.32,26.88,26.88,0,0,1,1.63-9.66,20.3,20.3,0,0,1,4.6-7.27,19.8,19.8,0,0,1,7.19-4.59,26.43,26.43,0,0,1,9.39-1.59,31.44,31.44,0,0,1,5.17.39,29.48,29.48,0,0,1,4.08.95,15.56,15.56,0,0,1,2.89,1.2,7,7,0,0,1,1.61,1.12,2.87,2.87,0,0,1,.66,1.33A12.46,12.46,0,0,1,73.3,20.73Z"/><path class="cls-1" d="M112.62,51.07q0,.85-.06,1.44a6.18,6.18,0,0,1-.15,1,2.64,2.64,0,0,1-.27.72,3.22,3.22,0,0,1-.54.7,7.1,7.1,0,0,1-1.44,1,17.52,17.52,0,0,1-2.6,1.16A22.1,22.1,0,0,1,104,58a23,23,0,0,1-4.28.38A22.63,22.63,0,0,1,91.64,57a16.11,16.11,0,0,1-6.16-4.15A18.44,18.44,0,0,1,81.59,46a31,31,0,0,1-1.35-9.61,30.23,30.23,0,0,1,1.49-9.91,20.7,20.7,0,0,1,4.16-7.28,17.37,17.37,0,0,1,6.41-4.46,21.55,21.55,0,0,1,8.24-1.52,20.14,20.14,0,0,1,3.52.3,22.35,22.35,0,0,1,3.13.79,15.77,15.77,0,0,1,2.58,1.14,7.43,7.43,0,0,1,1.61,1.1,3.87,3.87,0,0,1,.63.76,2.94,2.94,0,0,1,.27.78,7.66,7.66,0,0,1,.15,1.11c0,.43,0,1,0,1.59a17,17,0,0,1-.07,1.73,4.38,4.38,0,0,1-.23,1.15,1.61,1.61,0,0,1-.41.64.8.8,0,0,1-.54.21,2.34,2.34,0,0,1-1.29-.6,23.57,23.57,0,0,0-2-1.32A17.29,17.29,0,0,0,105,21.28a12.64,12.64,0,0,0-4.08-.59,9.68,9.68,0,0,0-8.14,4.11,14.37,14.37,0,0,0-2.18,4.79,24.56,24.56,0,0,0-.74,6.33,24.83,24.83,0,0,0,.79,6.68,13,13,0,0,0,2.27,4.65A9,9,0,0,0,96.46,50a11.71,11.71,0,0,0,4.69.9,13.09,13.09,0,0,0,4.09-.56,17,17,0,0,0,3-1.23c.82-.45,1.5-.86,2-1.22a2.51,2.51,0,0,1,1.24-.54,1,1,0,0,1,.54.13,1.1,1.1,0,0,1,.34.55,5.56,5.56,0,0,1,.2,1.13C112.59,49.61,112.62,50.26,112.62,51.07Z"/></g></g></svg>