<svg xmlns="http://www.w3.org/2000/svg" viewBox="0 0 149.26 122.63"><defs><style>.cls-1{fill:none;}.cls-2{fill:#fff;}</style></defs><title>DMIDCROMS-WebIcon-CSRS</title><g id="Layer_2" data-name="Layer 2"><g id="CSRS_Clinical_Study_Report_copy_3" data-name="CSRS (Clinical Study Report) copy 3"><polygon class="cls-1" points="75.09 7.92 140.59 15.8 140.6 11.68 75.09 7.46 75.09 7.92"/><polygon class="cls-1" points="138.19 22.84 138.2 18.5 78.76 11.34 138.19 22.84"/><path class="cls-2" d="M77,1.79,70.36,9.42l0,43.21H80V37L124.7,62.78,80,88.61V72.93H70.32l0,35.73,72.25,14v-7.32l2.32.28V108.5l2.4.15V99.3l1.94,0L149.26,0Zm65.49,21.59L83.08,11.88,142.52,19Zm2.4-7L79.41,8.46V8l65.51,4.22Zm2-7L79.42,5V4.7L146.86,3Z"/><polygon class="cls-1" points="75.1 4.49 142.54 8.83 142.54 2.49 75.1 4.16 75.1 4.49"/><path class="cls-2" d="M117.5,62.78,83.57,43.19v13H59.83a33.5,33.5,0,0,1-11.09,13.1H83.57v13Z"/><path class="cls-2" d="M58.89,35.94A29.75,29.75,0,1,0,31.77,71.6l1.63,8a9,9,0,0,0-3.27,8.9l4.32,21.06a9,9,0,0,0,17.64-3.62L47.76,84.85A9,9,0,0,0,41.24,78L39.6,70A29.78,29.78,0,0,0,58.89,35.94Zm-48.48,10A19.75,19.75,0,1,1,33.73,61.27,19.77,19.77,0,0,1,10.41,45.9Z"/><path class="cls-2" d="M29.64,59.43c.42,0,.82,0,1.23-.07a17.69,17.69,0,0,1,0-35.29c-.41,0-.81-.06-1.23-.06a17.71,17.71,0,0,0,0,35.42Z"/></g></g></svg>