<svg xmlns="http://www.w3.org/2000/svg" viewBox="0 0 102.36 149.55"><defs><style>.cls-1{fill:#fff;}</style></defs><title>DMIDCROMS-WebIcon-CRS</title><g id="Layer_2" data-name="Layer 2"><g id="CRS"><g id="CRS_Main_Icon" data-name="CRS Main Icon"><path class="cls-1" d="M83.78,55.19a23.24,23.24,0,0,0-32.84,0L18.58,87.55a23.22,23.22,0,0,0,32.84,32.84L83.78,88A23.24,23.24,0,0,0,83.78,55.19ZM66.87,100.56C65.78,95.66,61.12,89,55.53,83.44S43.31,73.19,38.41,72.1L53.13,57.38A20.13,20.13,0,0,1,81.59,85.85Z"/><path class="cls-1" d="M97.14,13.5H63.76q0,.4,0,.81c0,4.52,4,7.75,8.82,9.89h25V144.85H4.7V24.2H28.82c4.79-2.14,8.82-5.37,8.82-9.89q0-.41,0-.81H5.22A5.22,5.22,0,0,0,0,18.72v125.6a5.23,5.23,0,0,0,5.22,5.23H97.14a5.23,5.23,0,0,0,5.22-5.23V18.72A5.22,5.22,0,0,0,97.14,13.5Z"/><path class="cls-1" d="M50.72,19a5.89,5.89,0,0,0,5.89-5.53H44.82A5.91,5.91,0,0,0,50.72,19Z"/><path class="cls-1" d="M95.85,37.46H5.59l.26-1.53c0-.08,0-.19,0-.32,1-7.57,5.34-9.21,8.77-9.26A41,41,0,0,0,28.29,23c3.67-1.64,8.05-4.49,8.05-8.7,0-.3,0-.6,0-.89A14.32,14.32,0,0,1,50.65,0h.14A14.33,14.33,0,0,1,65.07,13.42c0,.29,0,.59,0,.89,0,4.21,4.37,7.06,8.05,8.7a40.89,40.89,0,0,0,13.62,3.34c3.44,0,7.75,1.69,8.77,9.26,0,.13,0,.24,0,.32ZM8.66,34.85H92.77c-.53-2.76-1.87-5.83-6-5.89A43.3,43.3,0,0,1,72.08,25.4c-6.28-2.82-9.59-6.65-9.59-11.09,0-.25,0-.49,0-.73a11.71,11.71,0,0,0-11.65-11h-.16A11.72,11.72,0,0,0,39,13.58c0,.24,0,.48,0,.73,0,4.44-3.32,8.27-9.6,11.09A43.31,43.31,0,0,1,14.7,29C10.54,29,9.2,32.09,8.66,34.85ZM50.72,20.34a7.23,7.23,0,0,1-7.2-6.76V13.5c0-.13,0-.25,0-.38a7.22,7.22,0,0,1,14.44,0c0,.13,0,.25,0,.38v.08A7.23,7.23,0,0,1,50.72,20.34Zm0-11.83a4.62,4.62,0,0,0-4.61,4.61,1.34,1.34,0,0,0,0,.2v.1a4.6,4.6,0,0,0,9.19,0v-.1c0-.07,0-.13,0-.2A4.62,4.62,0,0,0,50.72,8.51Z"/></g></g></g></svg>